<?xml version="1.0" standalone="no"?>
<!DOCTYPE svg PUBLIC "-//W3C//DTD SVG 20010904//EN"
 "http://www.w3.org/TR/2001/REC-SVG-20010904/DTD/svg10.dtd">
<svg version="1.0" xmlns="http://www.w3.org/2000/svg"
 width="200.000000pt" height="200.000000pt" viewBox="0 0 200.000000 200.000000"
 preserveAspectRatio="xMidYMid meet">
<metadata>
Created by potrace 1.11, written by Peter Selinger 2001-2013
</metadata>
<g transform="translate(0.000000,200.000000) scale(0.100000,-0.100000)"
fill="#000000" stroke="none">
<path d="M886 1869 l-26 -21 2 -156 3 -157 165 0 165 0 3 99 3 98 27 -6 c15
-4 70 -27 121 -53 208 -101 371 -327 407 -563 6 -38 5 -192 0 -220 -3 -14 -8
-38 -12 -55 -41 -204 -191 -402 -384 -507 -42 -23 -134 -58 -152 -58 -4 0 -8
39 -8 88 0 48 -4 93 -9 101 -24 37 -205 48 -288 16 l-43 -17 0 -152 c0 -121 3
-156 16 -174 l15 -22 484 0 484 0 18 23 c17 22 18 53 17 498 -1 455 -2 478
-24 567 -98 410 -452 692 -870 692 -73 0 -92 -3 -114 -21z"/>
<path d="M610 1146 c-3 -2 -30 -7 -60 -11 -67 -8 -89 -11 -137 -19 -39 -7 -82
-13 -143 -21 -19 -3 -46 -7 -60 -10 -14 -3 -40 -7 -59 -10 -19 -3 -37 -7 -40
-9 -3 -2 -6 -51 -5 -108 l0 -103 193 -3 c182 -2 193 -1 186 15 -15 35 -12 82
8 113 33 52 57 58 227 59 112 1 178 7 244 21 120 27 126 26 126 -8 0 -26 -3
-29 -62 -39 -35 -7 -74 -15 -88 -19 -20 -6 -175 -12 -336 -14 -38 0 -61 -17
-69 -52 -5 -21 -1 -33 19 -53 l26 -26 299 3 c284 3 301 4 327 24 48 35 66 67
67 122 2 55 -16 88 -67 126 -26 20 -43 21 -310 24 -155 2 -284 1 -286 -2z"/>
<path d="M1415 1135 c-47 -16 -94 -68 -96 -105 -5 -87 16 -131 76 -160 52 -25
78 -25 131 1 54 26 88 89 80 145 -15 92 -106 148 -191 119z"/>
<path d="M125 752 c-18 -2 -20 -8 -15 -59 l5 -56 715 1 c393 0 722 1 731 1 12
1 15 14 17 56 1 37 -3 55 -11 56 -36 2 -1425 4 -1442 1z"/>
</g>
</svg>
