<?xml version="1.0" encoding="UTF-8" standalone="no"?>
<svg width="1102px" height="179px" viewBox="0 0 1102 179" version="1.1" xmlns="http://www.w3.org/2000/svg" xmlns:xlink="http://www.w3.org/1999/xlink">
    <!-- Generator: Sketch 40 (33762) - http://www.bohemiancoding.com/sketch -->
    <title>Core-Slicer</title>
    <desc>Created with Sketch.</desc>
    <defs></defs>
    <g id="Page-1" stroke="none" stroke-width="1" fill="none" fill-rule="evenodd">
        <g id="Artboard" transform="translate(-194.000000, -254.000000)" fill="#FFFFFF">
            <g id="logo-with-brand" transform="translate(194.000000, 254.000000)">
                <path d="M130.76726,146.379509 C125.60228,154.674781 120.339556,160.954833 114.978933,165.219855 C109.618309,169.484877 103.377385,172.712941 96.255972,174.904145 C89.1345599,177.095349 80.7611566,178.190934 71.1355113,178.190934 C46.7974974,178.190934 28.8572852,171.167449 17.3143365,157.120267 C5.7713878,143.073085 0,121.885245 0,93.5561097 C0,65.3052319 5.7322597,44.1369553 17.1969512,30.050645 C28.6616426,15.9643347 46.3279584,8.9212852 70.1964286,8.9212852 C79.6655594,8.9212852 88.1172188,10.0951268 95.55166,12.4428452 C102.986102,14.7905636 109.266154,18.0186279 114.392006,22.1271351 C119.517858,26.2356423 124.19366,32.0070301 128.419553,39.4414716 L110.576983,51.1800048 C107.133663,45.3889661 103.651266,40.9870602 100.129688,37.974155 C96.608111,34.9612497 92.3822811,32.5744385 87.4520725,30.8136497 C82.5218639,29.0528609 76.7700401,28.1724797 70.1964286,28.1724797 C53.9189145,28.1724797 41.9652944,33.591715 34.3352097,44.4303482 C26.7051249,55.2689814 22.8901398,71.6440715 22.8901398,93.5561097 C22.8901398,115.155119 26.6464328,131.451953 34.1591317,142.447101 C41.6718305,153.442248 53.7623988,158.93974 70.4311993,158.93974 C79.6655583,158.93974 87.6868091,157.120285 94.495192,153.481322 C101.303576,149.842358 107.407552,143.562306 112.807304,134.640976 L130.76726,146.379509 L130.76726,146.379509 Z M262.004061,113.511616 C262.004061,134.875853 257.406515,151.035739 248.211285,161.991758 C239.016055,172.947777 225.614696,178.425705 208.006809,178.425705 C190.398921,178.425705 176.938871,173.00647 167.626254,162.167836 C158.313638,151.329203 153.6574,135.110625 153.6574,113.511616 C153.6574,91.5213207 158.333202,75.1266666 167.684947,64.327162 C177.036692,53.5276575 190.477178,48.1279862 208.006809,48.1279862 C225.692954,48.1279862 239.113876,53.6254776 248.269978,64.6206254 C257.426079,75.6157731 262.004061,91.9126071 262.004061,113.511616 L262.004061,113.511616 L262.004061,113.511616 Z M241.109472,113.511616 C241.109472,96.7645584 238.350945,84.595734 232.833806,77.0047779 C227.316668,69.4138218 219.041085,65.6184007 208.006809,65.6184007 C196.659503,65.6184007 188.246972,69.4333858 182.768962,77.0634706 C177.290953,84.6935553 174.551989,96.8428157 174.551989,113.511616 C174.551989,129.554358 177.193132,141.449287 182.475499,149.196757 C187.757865,156.944228 196.268217,160.817905 208.006809,160.817905 C219.1976,160.817905 227.512311,156.983356 232.951192,149.314142 C238.390073,141.644929 241.109472,129.710873 241.109472,113.511616 L241.109472,113.511616 L241.109472,113.511616 Z M362.251135,71.6050526 C360.059931,70.6659653 356.929687,70.1964286 352.860308,70.1964286 C346.834498,70.1964286 341.023982,71.5854745 335.428587,74.3636079 C329.833191,77.1417413 323.31837,82.2479522 315.883929,89.6823938 L315.883929,174.78676 L295.693652,174.78676 L295.693652,51.6495461 L315.883929,51.6495461 L315.883929,71.6050526 C321.518453,65.8922712 327.446353,60.8251884 333.667807,56.4036521 C339.88926,51.9821158 346.795362,49.7713808 354.386318,49.7713808 C359.473041,49.7713808 363.542358,50.5930699 366.594392,52.2364728 L362.251135,71.6050526 L362.251135,71.6050526 Z M398.405817,115.624552 C398.405817,131.902066 401.183909,143.503534 406.740176,150.429303 C412.296443,157.355072 421.217639,160.817905 433.504032,160.817905 C438.982041,160.817905 443.794792,159.663627 447.942427,157.355038 C452.090063,155.046448 456.081125,151.309719 459.915731,146.144739 L476.584449,156.474648 C471.889012,163.517803 466.176316,168.937038 459.44619,172.732516 C452.716064,176.527994 443.599228,178.425705 432.095408,178.425705 C413.783204,178.425705 400.10795,173.10429 391.069234,162.4613 C382.030518,151.81831 377.511228,135.73668 377.511228,114.215928 C377.511228,91.6778317 381.913134,75.0288453 390.717078,64.2684694 C399.521022,53.5080934 412.804996,48.1279862 430.569398,48.1279862 C446.533883,48.1279862 458.507067,52.7255324 466.48931,61.9207627 C474.471552,71.115993 478.462614,85.2607841 478.462614,104.35556 L478.462614,115.624552 L398.405817,115.624552 L398.405817,115.624552 Z M458.741878,99.777532 C458.585363,88.7432559 456.257244,80.1742124 451.757451,74.0701446 C447.257657,67.9660768 439.960275,64.9140887 429.865086,64.9140887 C420.239441,64.9140887 413.020315,67.6726164 408.207493,73.1897546 C403.39467,78.7068928 400.205734,87.5693967 398.640588,99.777532 L458.741878,99.777532 L458.741878,99.777532 Z M627.117266,130.297719 C627.117266,145.479631 622.12844,157.257175 612.150637,165.630704 C602.172833,174.004233 587.597634,178.190934 568.4246,178.190934 C553.790489,178.190934 541.582537,175.608483 531.800377,170.443502 C522.018217,165.278522 514.036094,157.257271 507.853769,146.379509 L525.461569,134.640976 C534.61767,150.840233 548.782026,158.93974 567.955059,158.93974 C579.458879,158.93974 588.517023,156.533364 595.129763,151.720542 C601.742504,146.907719 605.048824,140.314642 605.048824,131.941113 C605.048824,127.167419 603.992367,123.13723 601.87942,119.850424 C599.766473,116.563618 596.988382,113.805091 593.545061,111.574758 C590.101741,109.344426 586.149808,107.544535 581.689143,106.175033 C577.228478,104.805531 572.57224,103.494741 567.720288,102.242624 C559.738046,100.286192 552.303716,98.271098 545.417075,96.1972797 C538.530435,94.1234618 532.563407,91.4431902 527.515812,88.1563844 C522.468218,84.8695787 518.49672,80.663313 515.601201,75.5374612 C512.705682,70.4116094 511.257944,63.8185325 511.257944,55.7580328 C511.257944,41.3586934 515.894618,29.952866 525.168105,21.5402085 C534.441593,13.1275509 548.312488,8.9212852 566.781206,8.9212852 C581.493574,8.9212852 593.23199,11.6406849 601.996805,17.0795658 C610.761621,22.5184467 617.687286,29.5028042 622.774009,38.0328476 L605.518365,50.2409222 C601.292472,43.197767 596.147133,37.7589677 590.082194,33.924361 C584.017255,30.0897543 576.250337,28.1724797 566.781206,28.1724797 C556.216473,28.1724797 547.999582,30.5005989 542.130286,35.156907 C536.26099,39.8132151 533.326386,46.0541395 533.326386,53.8798675 C533.326386,58.0275033 534.206767,61.5099 535.967556,64.327162 C537.728345,67.1444241 540.252104,69.5116713 543.53891,71.4289746 C546.825716,73.346278 550.914597,74.9896562 555.805677,76.3591586 C560.696757,77.728661 566.272505,79.1959629 572.533087,80.7611085 C579.889271,82.7175405 586.893193,84.7717633 593.545061,86.9238385 C600.19693,89.0759136 606.007446,91.9126975 610.976783,95.434275 C615.946121,98.955853 619.87849,103.494707 622.774009,109.050974 C625.669528,114.60724 627.117266,121.689418 627.117266,130.297719 L627.117266,130.297719 L627.117266,130.297719 Z M661.511169,174.78676 L661.511169,0 L681.701446,0 L681.701446,174.78676 L661.511169,174.78676 L661.511169,174.78676 Z M745.911223,20.4250478 C745.911223,25.1204846 744.854765,28.3094209 742.741819,29.9919524 C740.628872,31.6744839 737.26386,32.515737 732.64668,32.515737 C727.716471,32.515737 724.312331,31.4592796 722.434156,29.346333 C720.555981,27.2333865 719.616908,24.2596545 719.616908,20.4250478 C719.616908,16.277412 720.634238,13.2449879 722.668927,11.3276846 C724.703616,9.4103812 728.029501,8.4517439 732.64668,8.4517439 C737.420374,8.4517439 740.824515,9.3712532 742.859204,11.2102992 C744.893893,13.0493453 745.911223,16.1208974 745.911223,20.4250478 L745.911223,20.4250478 L745.911223,20.4250478 Z M722.551541,174.78676 L722.551541,51.6495461 L742.741819,51.6495461 L742.741819,174.78676 L722.551541,174.78676 L722.551541,174.78676 Z M875.152473,155.770336 C871.317867,162.343947 865.996451,167.763183 859.188068,172.028204 C852.379685,176.293226 842.988952,178.425705 831.015588,178.425705 C812.938157,178.425705 799.321594,172.967342 790.165493,162.050451 C781.009391,151.133561 776.431409,134.954111 776.431409,113.511616 C776.431409,92.0691216 780.970263,75.8114157 790.048107,64.7380107 C799.125952,53.6646056 812.507746,48.1279862 830.193891,48.1279862 C850.462526,48.1279862 864.900778,55.6405723 873.509079,70.66597 L856.957747,80.7611085 C853.905713,75.9874145 850.325496,72.2702495 846.216989,69.609502 C842.108482,66.9487545 836.689246,65.6184007 829.95912,65.6184007 C818.142271,65.6184007 809.749304,69.9029225 804.779967,78.4720945 C799.810629,87.0412666 797.325998,98.877503 797.325998,113.981158 C797.325998,125.484978 798.49984,134.445302 800.847558,140.862399 C803.195276,147.279495 806.853749,152.20963 811.823087,155.65295 C816.792424,159.096271 823.111604,160.817905 830.780818,160.817905 C837.354429,160.817905 842.714972,159.585371 846.862608,157.120267 C851.010244,154.655163 854.923049,150.840178 858.601141,145.675197 L875.152473,155.770336 L875.152473,155.770336 Z M918.23289,115.624552 C918.23289,131.902066 921.010982,143.503534 926.567249,150.429303 C932.123516,157.355072 941.044712,160.817905 953.331104,160.817905 C958.809114,160.817905 963.621865,159.663627 967.7695,157.355038 C971.917136,155.046448 975.908198,151.309719 979.742804,146.144739 L996.41152,156.474648 C991.716085,163.517803 986.003389,168.937038 979.273263,172.732516 C972.543137,176.527994 963.426301,178.425705 951.922481,178.425705 C933.610277,178.425705 919.935023,173.10429 910.896307,162.4613 C901.857591,151.81831 897.338301,135.73668 897.338301,114.215928 C897.338301,91.6778317 901.740207,75.0288453 910.544151,64.2684694 C919.348095,53.5080934 932.632069,48.1279862 950.396471,48.1279862 C966.360956,48.1279862 978.33414,52.7255324 986.316383,61.9207627 C994.29863,71.115993 998.28969,85.2607841 998.28969,104.35556 L998.28969,115.624552 L918.23289,115.624552 L918.23289,115.624552 Z M978.568951,99.777532 C978.412436,88.7432559 976.084317,80.1742124 971.584524,74.0701446 C967.08473,67.9660768 959.787348,64.9140887 949.692159,64.9140887 C940.066514,64.9140887 932.847388,67.6726164 928.034565,73.1897546 C923.221743,78.7068928 920.032806,87.5693967 918.467661,99.777532 L978.568951,99.777532 L978.568951,99.777532 Z M1097.01075,71.6050526 C1094.81955,70.6659653 1091.6893,70.1964286 1087.61992,70.1964286 C1081.59411,70.1964286 1075.7836,71.5854745 1070.1882,74.3636079 C1064.59281,77.1417413 1058.07799,82.2479522 1050.64354,89.6823938 L1050.64354,174.78676 L1030.45327,174.78676 L1030.45327,51.6495461 L1050.64354,51.6495461 L1050.64354,71.6050526 C1056.27807,65.8922712 1062.20597,60.8251884 1068.42742,56.4036521 C1074.64888,51.9821158 1081.55498,49.7713808 1089.14593,49.7713808 C1094.23266,49.7713808 1098.30197,50.5930699 1101.35401,52.2364728 L1097.01075,71.6050526 L1097.01075,71.6050526 Z" id="Core-Slicer"></path>
            </g>
        </g>
    </g>
</svg>